<?xml version="1.0" encoding="UTF-8"?>
<!DOCTYPE svg PUBLIC "-//W3C//DTD SVG 1.1//EN" "http://www.w3.org/Graphics/SVG/1.1/DTD/svg11.dtd">
<!-- Creator: CorelDRAW 2021 (64-Bit) -->
<svg xmlns="http://www.w3.org/2000/svg" xml:space="preserve" width="0.807957in" height="1.02808in" version="1.1" style="shape-rendering:geometricPrecision; text-rendering:geometricPrecision; image-rendering:optimizeQuality; fill-rule:evenodd; clip-rule:evenodd"
viewBox="0 0 205.34 261.28"
 xmlns:xlink="http://www.w3.org/1999/xlink"
 xmlns:xodm="http://www.corel.com/coreldraw/odm/2003">
 <defs>
  <style type="text/css">
   <![CDATA[
    .fil1 {fill:#510099}
    .fil0 {fill:#9800EA}
   ]]>
  </style>
 </defs>
 <g id="Layer_x0020_1">
  <metadata id="CorelCorpID_0Corel-Layer"/>
  <g id="_1890256864256">
   <path class="fil0" d="M93.19 246.71c-0.93,-1.8 -9.59,-9.72 -14.16,-21.39l-65.59 -0.09 0.01 -11.97 61.31 0.03c-0.19,-3.43 -1.02,-6.5 -1.24,-10.09 -0.21,-3.29 0.15,-7.45 -0.19,-10.31l-59.88 -0.16 0.04 -11.96 61.32 0.02c1.67,-1.23 3.1,-8.01 4.24,-10.41 1.21,-2.54 4.6,-8.29 5.02,-10.07l-70.62 0.06 -0.01 -12.05 79.62 -0.04c4.52,-0.53 26.36,-28.67 69.21,-16.41 2.95,0.85 5.68,2.26 8.52,2.98 0.55,-14.07 0.04,-29.19 0.04,-43.37 0,-5.26 0.47,-84.95 -0.15,-87.87 -1.69,-7.99 -14.59,-0.08 -22.87,2.98 -3.05,1.13 -5.34,-0.6 -8.35,-1.78 -4.57,-1.79 -12.08,-6.11 -16.96,-4.24 -4.4,1.69 -11.76,5.29 -15.8,6.29 -2.63,0.66 -12.82,-4.17 -16.03,-5.39 -7.74,-2.94 -8.76,-0.7 -16.09,2.21 -9.15,3.63 -6.83,4.51 -16.05,0.94 -4.37,-1.69 -11.52,-5.79 -16.15,-4.14 -20.44,7.28 -11.24,9.28 -31.86,1.09 -8.36,-3.32 -10.44,-1.77 -10.39,7.71 0.12,26.87 -0.49,226.75 0.19,230.81 0.49,2.94 2.58,5.3 5.09,6.15 4.14,1.41 77.13,0.56 87.77,0.44zm-16.02 -224.6c-26.57,4.29 -49.38,28.85 -44.16,61.21 4.24,26.22 29.32,49.02 60.88,43.91 26.62,-4.31 48.75,-29.21 44.07,-60.72 -3.95,-26.6 -29.22,-49.5 -60.8,-44.41z"/>
   <path class="fil1" d="M136.23 134.85c-33.21,3.47 -60.38,32.01 -56.95,69.35 3,32.6 32.62,60.55 69.24,56.73 32.77,-3.41 60.07,-32.39 56.5,-69.29 -3.14,-32.41 -32.35,-60.6 -68.8,-56.79zm-18.45 48.05c-0.13,-0.05 -0.29,-0.32 -0.34,-0.22 -0.16,0.31 -0.57,-1.33 -3.92,-1.51 -3.42,-0.18 -15.25,-0.13 -17.32,0.56 -1.54,3.22 -1.48,46.1 0.09,47.75 1.61,1.68 7.36,1 11.28,1 1.85,0 4.7,0.17 6.43,-0.01 2.72,-0.28 2.4,-1.4 3.77,-2.59 13.19,4 17.05,5.69 32.77,5.69 12.75,-0 27.96,3.46 24.95,-12.62 0.9,-0.58 9.88,-3.94 6.32,-12.22 1.77,-2.32 4.56,-1.33 6.34,-6.04 1.59,-4.21 0.13,-6.89 -1.51,-9.68 1.16,-3.21 3.57,-5.21 1.55,-10.25 -1.32,-3.28 -3.46,-5.02 -8.08,-5.39 -7.91,-0.63 -18.1,-0.05 -26.28,-0.07 0.43,-2.66 2.47,-6 3.05,-10.17 2.97,-21.21 -13.77,-25.52 -17.14,-18.23 -1.19,2.57 -1.8,13.55 -6.1,21.84 -3.05,5.87 -9.43,9.01 -15.87,12.15z"/>
   <path class="fil1" d="M69.32 73.47c-22.53,3.54 -21.03,29.61 -19.11,32.41 4.04,5.91 15.73,12.23 23.27,14.37 24.18,6.86 47.54,-10.48 48.02,-16.9 0.15,-1.96 0.02,-5.53 -0.06,-7.58 -0.49,-11.77 -9.24,-21.86 -22.44,-22.59 -6.87,-0.38 -23.44,-0.68 -29.68,0.3z"/>
   <path class="fil1" d="M81.48 28.58c-27.99,7.04 -15.61,45.02 8.26,39.19 26.88,-6.57 15.76,-45.23 -8.26,-39.19z"/>
  </g>
 </g>
</svg>
