<?xml version="1.0" encoding="UTF-8"?>
<!DOCTYPE svg PUBLIC "-//W3C//DTD SVG 1.1//EN" "http://www.w3.org/Graphics/SVG/1.1/DTD/svg11.dtd">
<!-- Creator: CorelDRAW 2021 (64-Bit) -->
<svg xmlns="http://www.w3.org/2000/svg" xml:space="preserve" width="1.09929in" height="0.899205in" version="1.1" style="shape-rendering:geometricPrecision; text-rendering:geometricPrecision; image-rendering:optimizeQuality; fill-rule:evenodd; clip-rule:evenodd"
viewBox="0 0 1842.16 1506.86"
 xmlns:xlink="http://www.w3.org/1999/xlink"
 xmlns:xodm="http://www.corel.com/coreldraw/odm/2003">
 <defs>
  <style type="text/css">
   <![CDATA[
    .fil1 {fill:#510099}
    .fil2 {fill:#6F00AC}
    .fil0 {fill:#9800EA}
   ]]>
  </style>
 </defs>
 <g id="Layer_x0020_1">
  <metadata id="CorelCorpID_0Corel-Layer"/>
  <g id="_1890578680400">
   <path class="fil0" d="M72.53 85.56l1696.39 0 0 1134.75 -1696.39 0 0 -1134.75zm-68.77 -68.77l-0.04 1134.79c-1.09,185.07 -88.82,137.51 653.38,137.51l0 137.55 -320.94 0c-50.66,0 -69.52,80.24 -11.46,80.24l1192.06 0c58.05,0 39.2,-80.24 -11.46,-80.24l-320.94 0 0 -137.55 618.95 0c57.1,0 34.39,-178.54 34.39,-286.56l0 -985.74c-125.21,-29.17 -1528.6,-11.46 -1776.63,-11.46 -18.06,0 -43.44,6.08 -57.31,11.46z"/>
   <path class="fil1" d="M244.46 704.52c37.79,8.8 97.5,9.21 126.09,22.92 8.74,-37.51 10.3,-68.77 57.31,-68.77 86.3,0 -5.44,80.68 -20.11,94.48 -39.93,37.55 -58.51,50.68 -60.13,123.3l126.09 0c7.4,-88.92 222.61,-158.24 77.75,-284.08 -47.22,-41.01 -258.37,-96.59 -307,112.14z"/>
   <path class="fil0" d="M1482.38 326.27c0,-141.62 206.32,-122.59 206.32,-11.47 0,167.01 -206.32,141.71 -206.32,11.47zm80.23 -149.01c-172.67,14.37 -191,309.48 34.39,309.48 177.31,0 200.91,-293.71 11.47,-309.48 86.34,-75.05 9.54,-68.77 -45.85,-68.77 -77.42,0 -15.25,55.52 0,68.77z"/>
   <path class="fil1" d="M1012.43 830.59c0,26.42 7.98,34.39 34.39,34.39l584.57 0c48.56,0 48.56,-68.77 0,-68.77l-584.57 0c-26.41,0 -34.39,7.98 -34.39,34.39z"/>
   <path class="fil1" d="M1012.43 1048.38c0,35.24 33.58,45.85 68.77,45.85l412.64 0c50.93,0 59.11,-15.81 68.77,-57.31 -20.68,-13.85 -20.15,-22.92 -45.85,-22.92l-469.95 0c-26.41,0 -34.39,7.98 -34.39,34.39z"/>
   <path class="fil0" d="M141.31 234.57l447.23 0.2c52.99,0.72 114.41,15.34 114.41,-34.59 0,-26.41 -7.98,-34.39 -34.39,-34.39l-492.87 0c-50.33,0 -42.2,35.2 -34.39,68.77z"/>
   <path class="fil1" d="M1012.43 612.82c0,35.24 33.58,45.85 68.77,45.85l332.4 0c50.66,0 69.52,-80.23 11.46,-80.23l-378.25 0c-26.41,0 -34.39,7.98 -34.39,34.39z"/>
   <path class="fil0" d="M874.88 796.21l68.77 0 0 68.77 -68.77 0 0 -68.77zm-57.31 -11.46c0,163.78 -26.88,137.55 149,137.55 48.91,0 34.39,-43.99 34.39,-149 0,-47.86 -39.77,-34.39 -137.55,-34.39 -26.83,0 -45.85,19.01 -45.85,45.85z"/>
   <path class="fil0" d="M874.88 578.43l68.77 0 0 80.23 -68.77 0 0 -80.23zm-57.31 -11.46c0,163.78 -26.88,137.55 149,137.55 55.99,0 34.39,-118.38 34.39,-171.93 -43.02,-10.03 -183.39,-38.92 -183.39,34.39z"/>
   <path class="fil0" d="M874.88 1013.99l68.77 0 0 80.23 -68.77 0 0 -80.23zm-57.31 -11.47c0,163.78 -26.88,137.55 149,137.55 55.99,0 34.39,-118.38 34.39,-171.94 -43.02,-10.02 -183.39,-38.92 -183.39,34.39z"/>
   <polygon class="fil1" points="347.62,1025.45 473.71,1025.45 473.71,910.83 347.62,910.83 "/>
   <path class="fil2" d="M1506.67 282.08c12.59,19.19 16.82,22.66 35.47,41.72 26.15,26.75 18.22,27.07 54.85,36.85 33.89,-40.57 -26.07,-82.24 -57.31,-103.16l-33.01 24.58z"/>
  </g>
 </g>
</svg>
