<?xml version="1.0" encoding="UTF-8"?>
<!DOCTYPE svg PUBLIC "-//W3C//DTD SVG 1.1//EN" "http://www.w3.org/Graphics/SVG/1.1/DTD/svg11.dtd">
<!-- Creator: CorelDRAW 2021 (64-Bit) -->
<svg xmlns="http://www.w3.org/2000/svg" xml:space="preserve" width="0.992476in" height="0.961854in" version="1.1" style="shape-rendering:geometricPrecision; text-rendering:geometricPrecision; image-rendering:optimizeQuality; fill-rule:evenodd; clip-rule:evenodd"
viewBox="0 0 409.56 396.93"
 xmlns:xlink="http://www.w3.org/1999/xlink"
 xmlns:xodm="http://www.corel.com/coreldraw/odm/2003">
 <defs>
  <style type="text/css">
   <![CDATA[
    .fil1 {fill:#510099}
    .fil0 {fill:#6F00AC}
    .fil2 {fill:#9900CC}
   ]]>
  </style>
 </defs>
 <g id="Layer_x0020_1">
  <metadata id="CorelCorpID_0Corel-Layer"/>
  <g id="_1890239450192">
   <path class="fil0" d="M280.5 303.3c0,-4.94 18.37,-21.25 23.31,-26.19 11.19,-11.19 9.28,-11.02 25.16,4.95l14.85 14.02c5.01,5.01 9.45,9.41 14.43,14.45l14.86 14.02c4.76,4.76 9.13,9.52 14.01,14.03 12.82,11.86 13.07,8.87 -9.06,30.93 -14.41,14.36 -12,19.92 -26.4,5.36 -2.22,-2.25 -2.9,-2.71 -5.28,-4.62 -5.47,-4.36 -17.47,-18.57 -25.7,-25.45 -7.53,-6.3 -13.51,-12.76 -20.59,-19.84 -6.36,-6.35 -19.6,-16.34 -19.6,-21.66zm-20.63 -67.65c4.46,2.99 15.12,14.94 20.4,20.02 1.93,1.86 2.66,2.04 4.55,3.7 2.62,2.31 6.24,5.74 8.05,8.45 -3.93,5.86 -10.22,9.99 -14.03,15.67 -4.45,-2.98 -11.81,-11.59 -16.28,-15.9l-8.27 -7.41c-2.86,-2.87 -5.21,-5.87 -8.45,-8.04 3.96,-5.91 10.46,-9.76 14.02,-16.5zm-108.07 42.07c-24.96,0 -42.29,-2.1 -63.81,-12.92 -45.54,-22.89 -74.79,-67.66 -74.79,-119.08 0,-27.87 9.19,-52.83 23.92,-75.08 8.67,-13.09 20.31,-23.85 32.87,-33.13 49.79,-36.76 123.96,-29.94 168.22,14.36 2.79,2.79 5.32,5.04 7.64,8.04 5.05,6.54 9.49,11.41 13.74,19.26 8.11,14.99 14.9,30.88 16.79,48.39 0.48,4.43 0.58,10.54 1.31,15.22 0.91,5.79 -1.36,23.35 -2.49,28.99 -3.94,19.69 -13.4,40.65 -25.86,55.82l-11.14 12.78c-12.06,10.19 -18.01,15.95 -33.87,23.88 -12.85,6.43 -33.73,13.47 -52.53,13.47zm-151.8 -136.95c0,27.16 2.92,45.49 14.3,68.2 24.41,48.75 70.81,82.77 132.55,82.77 19.91,0 35.56,-4.33 50.65,-9.58 3.43,-1.19 7.49,-3 10.41,-4.44 13.22,-6.51 16.12,-9.35 28.04,-17.34 2.77,4.14 12.12,12.53 16.29,16.7 5.12,5.12 14.24,12.62 16.7,16.3 -3.68,15.79 -5.46,14.75 10.93,31.14l18.15 17.32c6.09,6.13 11.65,11.59 17.73,17.74 3.21,3.25 5.82,4.96 9.08,8.25 6.43,6.49 21.13,21.97 26.95,25.85 16.38,10.91 30.91,-8.3 42.35,-21.3 6.6,-7.5 26.65,-20.08 7.01,-39.61 -3.76,-3.74 -8.02,-8.67 -12.1,-11.82 -7.61,-5.87 -16.78,-16.17 -23.78,-23.25l-29.7 -28.88c-11.74,-10.86 -17.94,-17.96 -32.8,-10.1l-34.65 -33.82 8.53 -15.4c11.08,-22.05 14.57,-41.8 14.57,-67.93 0,-22.46 -6.93,-41.97 -13.79,-57.99 -1.85,-4.31 -3.85,-7.57 -6.06,-11.26 -2.3,-3.84 -4.32,-7.28 -7.14,-11.01 -2.75,-3.65 -4.98,-6.77 -7.91,-10.24l-17.9 -17.58c-10.54,-8.14 -20.79,-15.34 -33.59,-20.86 -51.74,-22.31 -106.84,-14.85 -151.11,20.15 -31.41,24.83 -53.73,67.38 -53.73,107.97z"/>
   <path class="fil1" d="M146.02 250.5c-31.55,0 -56.88,-13.54 -72.81,-29.49 -6.91,-6.92 -5.98,-5.47 -12.05,-13.52 -1.78,-2.36 -3.62,-4.87 -5.03,-7.34 -11.06,-19.27 -14.88,-33.82 -14.88,-57.72 0,-31.81 17.65,-62.55 42.77,-80.98 13.94,-10.23 36.09,-19.67 55.4,-19.67 21.05,0 32.58,0.53 51.7,10.17 6.28,3.16 10.09,5.17 15.6,9.15 14.55,10.49 25.87,24.5 33.63,40.62 14.69,30.5 12.27,67.92 -4.44,96.79 -10.65,18.39 -27.81,33.59 -47.27,42.66 -10.97,5.11 -26.93,9.35 -42.63,9.35zm-118.8 -104.77c0,20.03 5.33,38.73 12.64,53.36l14.84 22.29c2.46,2.91 4.29,5.22 6.96,7.89 15.85,15.85 35.35,26.32 57.29,31.81 7.56,1.89 18.11,2.9 26.35,3.1 26.37,0.66 56.36,-10.79 75.56,-27.12l11.31 -10.96c1.44,-1.87 2.07,-2.25 3.58,-3.85 2.19,-2.33 4.45,-5.63 6.45,-8.4 33.63,-46.42 26.61,-111.61 -12.23,-150.42 -11.6,-11.59 -18.92,-16.73 -34.16,-24.41 -29.46,-14.85 -70.31,-15.07 -99.84,-0.28 -14.83,7.43 -30.83,18.21 -41.17,31.43 -2.48,3.17 -4,5.27 -6.36,8.49 -12.69,17.26 -21.21,43.35 -21.21,67.07z"/>
   <path class="fil2" d="M145.2 107.78c20.47,0 37.95,17.14 37.95,34.65 0,13.14 -1.19,20.76 -11.74,31.16 -27.32,26.94 -76.76,-2.48 -60.54,-43.21 4.88,-12.25 19.61,-22.6 34.32,-22.6zm44.55 10.73c11.38,6.02 25.64,16.23 33,27.22 -6.23,9.3 -24.6,25.27 -33,27.22 6.85,-12.94 10.09,-27.38 5.07,-42.2l-5.07 -12.25zm-95.7 24.75c0,13.4 1.57,18.64 7.42,29.7 -8.75,-2.04 -26.73,-17.87 -33,-27.22 7.34,-10.97 20.92,-20.83 33,-27.22 -0.64,2.38 -1.41,2.72 -2.47,4.96 -2.67,5.61 -4.96,13.24 -4.96,19.79zm-40.43 1.65l0 3.3c0,5.26 17.76,21.37 25.1,26.87 3.97,2.97 6.39,4.78 10.91,7.23 8.68,4.72 13.8,7.36 24.1,10.55 30.05,9.3 62.69,4.49 87.3,-10.27 4.34,-2.6 7.22,-4.33 10.99,-7.16 7.51,-5.65 25.57,-20.65 25.57,-30.52 0,-8.14 -24.52,-28.5 -33.67,-33.98 -22.88,-13.71 -37.14,-16.34 -64.51,-16.34 -18.19,0 -40.42,8.6 -51.64,16.01 -14.03,9.27 -20.71,14.67 -31.23,28.18 -1.59,2.04 -2.93,2.89 -2.93,6.14z"/>
   <path class="fil2" d="M132.82 145.73c0,-13.11 18.86,-17.26 24.18,-5.21 4.26,9.66 -3.65,17.58 -9.33,17.58 -7.8,0 -14.85,-2.69 -14.85,-12.38zm-13.2 -1.65l0 4.95c0,10.57 11.37,23.1 26.4,23.1 13.36,0 25.57,-11.55 25.57,-24.75 0,-8.29 -1.86,-15.52 -8.1,-20.77 -20.48,-17.23 -43.87,-0.17 -43.87,17.47z"/>
   <path class="fil2" d="M138.6 59.93c0,16.34 -2.64,26.4 8.25,26.4 7.86,0 5.77,-17.77 5.77,-24.75 0,-12.55 -14.02,-10.53 -14.02,-1.65z"/>
   <path class="fil2" d="M138.6 212.55c0,9.83 -2.47,26.4 6.6,26.4 9.94,0 7.42,-13.48 7.42,-24.75 0,-12.55 -14.02,-10.53 -14.02,-1.65z"/>
   <path class="fil2" d="M95.7 220.8c0,6.81 8.98,10.01 13.49,1.94 4.82,-8.64 13.37,-19.05 8.08,-24.34 -5.7,-5.7 -10.75,1.1 -13.32,5.9 -1.72,3.21 -8.25,13 -8.25,16.5z"/>
   <path class="fil2" d="M178.2 95.4c5.78,0 7.96,-6.17 10.37,-10.25 1.31,-2.22 6.95,-11.78 6.95,-13.67 0,-5.04 -4.87,-8.42 -9.11,-6.72 -4.13,1.65 -7.47,10.07 -10.52,15.13 -0.98,1.62 -2.8,4.35 -3.4,5.75 -1.9,4.48 1.39,9.76 5.71,9.76z"/>
   <path class="fil2" d="M188.1 227.4c3.38,0 7.42,-2.35 7.42,-6.6 0,-3.21 -10.71,-21.42 -12.69,-22.83 -5.81,-4.12 -12.91,1.25 -10.4,7.87l4.46 8c3.06,5.17 6.5,13.55 11.2,13.55z"/>
   <path class="fil2" d="M95.7 71.48c0,1.31 10.3,23.92 16.5,23.92 5.16,0 8.12,-4.51 6.58,-8.97l-9.19 -16.46c-6.32,-10.87 -13.88,-3.8 -13.88,1.51z"/>
  </g>
 </g>
</svg>
