<?xml version="1.0" encoding="UTF-8"?>
<!DOCTYPE svg PUBLIC "-//W3C//DTD SVG 1.1//EN" "http://www.w3.org/Graphics/SVG/1.1/DTD/svg11.dtd">
<!-- Creator: CorelDRAW 2021 (64-Bit) -->
<svg xmlns="http://www.w3.org/2000/svg" xml:space="preserve" width="1.00074in" height="0.924287in" version="1.1" style="shape-rendering:geometricPrecision; text-rendering:geometricPrecision; image-rendering:optimizeQuality; fill-rule:evenodd; clip-rule:evenodd"
viewBox="0 0 108.55 100.26"
 xmlns:xlink="http://www.w3.org/1999/xlink"
 xmlns:xodm="http://www.corel.com/coreldraw/odm/2003">
 <defs>
  <style type="text/css">
   <![CDATA[
    .fil1 {fill:#510099}
    .fil0 {fill:#6F00AC}
   ]]>
  </style>
 </defs>
 <g id="Layer_x0020_1">
  <metadata id="CorelCorpID_0Corel-Layer"/>
  <g id="_1890458101072">
   <path class="fil0" d="M54.23 3.96c0,4.92 3.86,4.32 7.41,4.32l0 6.79c-4.46,0.37 -10.15,2.17 -13.57,3.71 -2.07,0.93 -3.78,1.88 -5.57,3.07 -1.89,1.25 -3.27,2.6 -4.93,3.71 -5.71,-8.52 -11.73,-7.26 -11.73,-1.85 0,1.8 1.75,2.9 2.89,3.9 1.38,1.2 2.34,2.11 3.28,3.51 -1.74,3.29 -12.69,18.52 -3.09,18.52 5.99,0 1.32,-5.43 13.72,-17.76 9.39,-9.34 26.1,-11.32 38.36,-5.31 4.4,2.16 7.24,4.77 10.44,8.08 2.84,2.94 5.37,7.3 6.87,11.65 7.09,20.47 -6.33,41.34 -25.2,45.06 -3.15,0.62 -4.9,0.79 -8.42,0.84 -7.74,0.1 -6.38,8.06 -0.58,8.06 25.9,0 44.45,-18.36 44.45,-43.83 0,-21.75 -18.65,-39.68 -38.89,-41.36l0 -6.79c3.23,0 7.41,0.49 7.41,-3.7 0,-6.15 -7.45,-4.32 -18.52,-4.32 -2.49,0 -4.32,1.34 -4.32,3.7z"/>
   <path class="fil1" d="M6.08 65.69l40.74 0c6.31,0 7.67,-8.64 -1.24,-8.64l-39.51 0c-8.11,0 -8.11,8.64 0,8.64z"/>
   <path class="fil1" d="M11.64 76.8c0,3.08 2.94,4.32 6.17,4.32l29.01 0c6.31,0 7.67,-8.64 -1.24,-8.64l-27.78 0c-3.23,0 -6.17,1.24 -6.17,4.32z"/>
   <path class="fil1" d="M23.36 91.62c0,3.3 1.68,4.94 6.17,4.94l17.28 0c6.31,0 7.67,-8.64 -1.24,-8.64 -6.64,0 -22.22,-1.72 -22.22,3.7z"/>
   <path class="fil1" d="M61.64 57.05c0,5.56 4.8,4.8 6.25,3.84 0.32,-0.21 17.21,-16.37 17.21,-18.04 0,-5.25 -4.38,-5.29 -6.29,-3.87 -2.07,1.53 -17.17,16.65 -17.17,18.07z"/>
  </g>
 </g>
</svg>
