<?xml version="1.0" encoding="UTF-8"?>
<!DOCTYPE svg PUBLIC "-//W3C//DTD SVG 1.1//EN" "http://www.w3.org/Graphics/SVG/1.1/DTD/svg11.dtd">
<!-- Creator: CorelDRAW 2021 (64-Bit) -->
<svg xmlns="http://www.w3.org/2000/svg" xml:space="preserve" width="0.786177in" height="0.924937in" version="1.1" style="shape-rendering:geometricPrecision; text-rendering:geometricPrecision; image-rendering:optimizeQuality; fill-rule:evenodd; clip-rule:evenodd"
viewBox="0 0 54.46 64.07"
 xmlns:xlink="http://www.w3.org/1999/xlink"
 xmlns:xodm="http://www.corel.com/coreldraw/odm/2003">
 <defs>
  <style type="text/css">
   <![CDATA[
    .fil1 {fill:#6F00AC}
    .fil0 {fill:#9800EA}
   ]]>
  </style>
 </defs>
 <g id="Layer_x0020_1">
  <metadata id="CorelCorpID_0Corel-Layer"/>
  <g id="_1890511898784">
   <path class="fil0" d="M20.31 5.69c-3.12,1.39 -1.44,1.17 -6.11,-3.05l-9.73 9.7 3.91 3.91 -0.75 2.18 -5.7 0.03 -0.04 13.72 9.11 0.1 -1 -3.22 -4.86 -0.03 -0.02 -7.3 4.81 -0.06c0.5,-0.94 0.72,-2.05 1.13,-3.02 0.44,-1.06 0.91,-1.84 1.33,-2.83 -1,-1.18 -2.36,-2.42 -3.33,-3.32 0.36,-0.9 4.4,-4.85 5.15,-5.29 0.98,0.57 2.54,2.36 3.42,3.27 0.84,-0.26 1.91,-0.88 2.81,-1.26 1.03,-0.44 2.11,-0.69 3.12,-1.14l0.01 -4.86 7.36 0.01 0.03 4.85 5.92 2.4 3.35 -3.35c1.11,0.7 1.87,1.71 2.74,2.59 0.86,0.87 2.01,1.62 2.48,2.77l-3.35 3.31c0.43,1 0.89,1.78 1.34,2.85 0.41,0.97 0.63,2.08 1.13,2.97l4.78 0.07 0.03 7.27 -4.92 0.09 -0.99 3.21 9.12 0.01 0.01 -13.76 -5.78 -0.06 -0.8 -2.2 3.94 -3.85 -9.66 -9.77c-0.95,0.88 -1.82,1.8 -2.76,2.75 -1.44,1.45 -1.15,1.36 -3.36,0.31l-0.02 -5.68 -13.8 0.01 -0.04 5.68z"/>
   <path class="fil1" d="M14.78 32.27l3.62 -0.01c-1.49,-3.49 -2.9,-6.94 -0.2,-11.37 6.08,-10.01 20.25,-5.08 20.28,5.4 0.01,2.93 -0.88,3.84 -1.67,5.99l3.47 -0.01c2.27,-2.78 1.78,-9.71 -0.97,-13.77 -2.01,-2.97 -5.81,-6.21 -11.43,-6.29 -5.67,-0.08 -9.59,2.95 -11.78,5.95 -3.03,4.15 -3.27,8.97 -1.32,14.12z"/>
   <path class="fil1" d="M13.59 48.61c-5.31,1.88 -4.04,9.51 1.46,9.69 4.71,0.16 7.96,-6.64 1.76,-9.76 -0.01,-2.79 0.25,-2.21 3.71,-5.67 2.16,-2.16 2.19,-1.54 1.9,-7.28l-3.19 -0.07c-0.17,5.26 0.26,3.72 -2.65,6.61 -3.56,3.53 -2.99,2.38 -2.99,6.47zm1.07 3.06c-2.41,0.92 -0.88,4.09 1.23,3.26 1.89,-0.75 1.03,-4.12 -1.23,-3.26z"/>
   <path class="fil1" d="M37.66 48.54c-6.08,3 -3.08,9.73 1.55,9.77 5.67,0.05 7.03,-7.94 1.66,-9.69 -0.01,-4.26 0.52,-2.99 -2.88,-6.38 -3.61,-3.61 -2.6,-1.81 -2.76,-6.65l-3.19 -0.07c-0.22,5.84 -0.36,5.09 1.91,7.35 3.47,3.47 3.71,2.88 3.71,5.67zm1.11 3.11c-2.21,0.69 -1.24,3.92 0.94,3.35 2.05,-0.54 1.42,-4.08 -0.94,-3.35z"/>
   <path class="fil1" d="M25.63 54.08c-0.54,0.85 -3.88,1.75 -3.35,5.77 0.73,5.51 8.92,5.67 9.88,0.19 0.74,-4.25 -3.13,-5.32 -3.31,-5.96l-0 -13.14 -3.19 -0.08 -0.02 13.21zm1.11 3.44c-0.48,0.19 -0.79,0.28 -1.06,0.79 -0.27,0.52 -0.28,0.86 -0.08,1.44 0.3,0.86 1.29,1.4 2.3,0.98 1.85,-0.77 0.98,-4.05 -1.16,-3.21z"/>
   <path class="fil1" d="M8.42 39.78c-1.1,-0.34 -1.5,-1.06 -3.21,-1.13 -4.34,-0.19 -6.4,4.49 -4.52,7.54 1.03,1.67 3.42,3.18 6.19,2.07 2.39,-0.95 3.01,-2.76 3.07,-5.67 2.07,-1.13 4.16,-2.33 6.09,-3.54l-0 -3.49 -3.19 -0.07c-0.17,2.19 0.24,1.65 -1.56,2.63 -0.95,0.52 -1.88,1.11 -2.87,1.65zm-4.09 2.24c-2.09,0.82 -1.03,4.2 1.41,3.2 1.79,-0.73 0.84,-4.08 -1.41,-3.2z"/>
   <path class="fil1" d="M38.42 39.06c1.84,1.17 4.11,2.5 6.09,3.53 0.19,7.87 7.25,6.94 9.26,3.6 1.83,-3.04 -0.12,-7.59 -4.3,-7.55 -1.84,0.02 -2.24,0.76 -3.42,1.14 -4.97,-2.81 -4.24,-1.9 -4.43,-4.3l-3.18 0.04 -0.02 3.53zm10.41 2.99c-2.17,1.02 -0.89,4.01 1.4,3.2 1.92,-0.68 0.86,-4.26 -1.4,-3.2z"/>
   <path class="fil0" d="M33.69 19.68c-0.75,0.28 -2.16,1.44 -2.95,1.99 -2.76,1.95 -1.53,1.38 -3.32,1.24 -3.02,-0.25 -4.51,3.47 -2.54,5.51 2.01,2.09 5.81,0.67 5.56,-2.55 -0.14,-1.85 -0.78,-0.24 1.24,-3.25 0.68,-1.01 1.4,-1.87 2,-2.94z"/>
   <polygon class="fil1" points="25.62,38.62 28.84,38.71 28.84,35.59 25.65,35.52 "/>
  </g>
 </g>
</svg>
